<svg width="13" height="11" viewBox="0 0 13 11" fill="none" xmlns="http://www.w3.org/2000/svg">
<path d="M11.7263 7.50125L9.88811 7.32367C9.44667 7.2808 9.01246 7.4094 8.70128 7.67271L7.36971 8.79942C5.3217 7.91764 3.64276 6.50312 2.60067 4.76406L3.93947 3.63122C4.25065 3.36791 4.40263 3.0005 4.35197 2.62697L4.1421 1.08385C4.05526 0.465384 3.44013 0 2.70198 0H1.45002C0.632259 0 -0.0479991 0.575606 0.00265842 1.26756C0.386208 6.497 5.32893 10.6732 11.5019 10.9977C12.3197 11.0406 12.9999 10.465 12.9999 9.77306V8.7137C13.0072 8.09523 12.4572 7.57473 11.7263 7.50125Z" fill="#212121" fill-opacity="0.62"/>
</svg>
