<svg width="21" height="21" viewBox="0 0 21 21" fill="#ECE7E4" xmlns="http://www.w3.org/2000/svg">
<path d="M10.4942 21C7.62576 21 7.28762 20.9849 6.16824 20.936C5.29532 20.9073 4.4337 20.7301 3.62049 20.412C2.92459 20.1416 2.2926 19.7296 1.76468 19.2022C1.23675 18.6749 0.824415 18.0436 0.553859 17.3486C0.247553 16.5336 0.0823418 15.6726 0.0652971 14.8022C-6.25849e-09 13.6868 0 13.3212 0 10.479C0 7.60662 0.0151582 7.27129 0.0652971 6.15935C0.0827146 5.29019 0.24792 4.43032 0.553859 3.61643C0.824104 2.92055 1.23672 2.2886 1.76535 1.76093C2.29397 1.23327 2.927 0.821487 3.62399 0.551896C4.43862 0.244747 5.29996 0.0793429 6.17057 0.0628741C7.28412 -1.17347e-07 7.65025 0 10.4942 0C13.3859 0 13.7182 0.0151363 14.8201 0.0628741C15.6923 0.0791749 16.5575 0.244511 17.3737 0.551896C18.0705 0.8218 18.7034 1.23369 19.2319 1.76131C19.7605 2.28894 20.1733 2.92073 20.4438 3.61643C20.7551 4.44311 20.9219 5.31637 20.9347 6.19777C21 7.31321 21 7.67764 21 10.5186C21 13.3596 20.9837 13.7322 20.9347 14.8348C20.9173 15.706 20.7517 16.5678 20.445 17.3836C20.1737 18.0791 19.7606 18.7106 19.2319 19.2382C18.7032 19.7658 18.0704 20.1778 17.3737 20.4481C16.5575 20.7532 15.6958 20.9185 14.8248 20.936C13.7112 21 13.3463 21 10.4942 21ZM10.4545 1.84315C7.60244 1.84315 7.30627 1.85712 6.19273 1.90719C5.52769 1.91587 4.86906 2.03835 4.24548 2.26929C3.79065 2.44338 3.3774 2.71071 3.03237 3.05404C2.68734 3.39737 2.41818 3.80908 2.24225 4.26264C2.00905 4.89138 1.88662 5.55622 1.87962 6.22688C1.81782 7.35512 1.81782 7.65087 1.81782 10.479C1.81782 13.2735 1.82832 13.6123 1.87962 14.7335C1.89012 15.3972 2.01255 16.0551 2.24225 16.678C2.59906 17.5943 3.32665 18.3185 4.24664 18.6702C4.86942 18.9026 5.52792 19.0251 6.19273 19.0323C7.32143 19.0975 7.61877 19.0975 10.4545 19.0975C13.3148 19.0975 13.6109 19.0835 14.7152 19.0323C15.3803 19.0242 16.039 18.9017 16.6624 18.6702C17.1148 18.4947 17.5257 18.2272 17.869 17.8847C18.2122 17.5421 18.4804 17.132 18.6563 16.6803C18.8895 16.0516 19.0119 15.3856 19.0189 14.7149H19.0318C19.0819 13.6018 19.0819 13.3049 19.0819 10.4604C19.0819 7.61593 19.0691 7.3167 19.0189 6.20476C19.0084 5.54162 18.8858 4.88502 18.6563 4.26264C18.4808 3.81035 18.2128 3.39952 17.8695 3.05633C17.5263 2.71313 17.1151 2.4451 16.6624 2.26929C16.0391 2.03722 15.3803 1.91471 14.7152 1.90719C13.5876 1.84315 13.2926 1.84315 10.4545 1.84315ZM10.4942 15.8571C9.42793 15.8578 8.38543 15.5427 7.49853 14.9517C6.61164 14.3608 5.92018 13.5204 5.51161 12.537C5.10305 11.5535 4.99573 10.4712 5.20323 9.42684C5.41074 8.38249 5.92374 7.42305 6.67736 6.66987C7.43098 5.91668 8.39136 5.40359 9.43704 5.19548C10.4827 4.98737 11.5667 5.09359 12.5519 5.50072C13.5371 5.90784 14.3793 6.59758 14.9719 7.48269C15.5645 8.3678 15.8809 9.40852 15.8812 10.4732C15.8793 11.8997 15.3113 13.2674 14.3016 14.2765C13.2919 15.2857 11.9228 15.854 10.4942 15.8571ZM10.4942 6.97788C9.80232 6.97788 9.12601 7.18274 8.55075 7.56656C7.9755 7.95037 7.52715 8.49591 7.26239 9.13417C6.99763 9.77244 6.92835 10.4748 7.06333 11.1523C7.1983 11.8299 7.53146 12.4523 8.02067 12.9408C8.50988 13.4293 9.13318 13.762 9.81173 13.8968C10.4903 14.0316 11.1936 13.9624 11.8328 13.698C12.472 13.4336 13.0183 12.9859 13.4027 12.4115C13.7871 11.8371 13.9922 11.1617 13.9922 10.4709C13.9901 9.54515 13.6208 8.65794 12.9653 8.00334C12.3097 7.34873 11.4213 6.98003 10.4942 6.97788ZM16.0911 6.1477C15.926 6.14709 15.7627 6.11402 15.6104 6.05038C15.4581 5.98674 15.3199 5.89377 15.2036 5.77678C14.9688 5.54052 14.8375 5.22078 14.8388 4.88789C14.84 4.555 14.9736 4.23624 15.2102 4.00172C15.4468 3.76721 15.767 3.63616 16.1004 3.63739C16.4338 3.63863 16.753 3.77205 16.9878 4.00831C17.2227 4.24457 17.3539 4.56432 17.3527 4.89721C17.3515 5.23009 17.2178 5.54886 16.9812 5.78337C16.7446 6.01789 16.4244 6.14894 16.0911 6.1477Z" fill="#ECE7E4"/>
</svg>
