<svg width="14" height="11" viewBox="0 0 14 11" fill="none" xmlns="http://www.w3.org/2000/svg">
<path d="M12.6 0H1.4C0.63 0 0.00699999 0.61875 0.00699999 1.375L0 9.625C0 10.3813 0.63 11 1.4 11H12.6C13.37 11 14 10.3813 14 9.625V1.375C14 0.61875 13.37 0 12.6 0ZM12.32 2.92188L7.371 5.96063C7.147 6.09812 6.853 6.09812 6.629 5.96063L1.68 2.92188C1.505 2.81188 1.4 2.62625 1.4 2.42688C1.4 1.96625 1.911 1.69125 2.31 1.93188L7 4.8125L11.69 1.93188C12.089 1.69125 12.6 1.96625 12.6 2.42688C12.6 2.62625 12.495 2.81188 12.32 2.92188Z" fill="#212121" fill-opacity="0.62"/>
</svg>
