<svg width="140" height="46" viewBox="0 0 140 46" fill="none" xmlns="http://www.w3.org/2000/svg">
<path fill-rule="evenodd" clip-rule="evenodd" d="M69.4537 0H67.5786V36.5995H69.4537V0ZM63.2034 7.44397H65.0785V36.5995H63.2034V7.44397ZM12.3255 17.3908L5.22031 26.2375L5.73029 26.8628C5.99077 27.1644 6.29827 27.5283 6.65286 27.9545C6.78855 28.1174 6.93093 28.2895 7.08032 28.4707C7.64047 29.1258 8.2205 29.8305 8.82053 30.5848C9.44051 31.3193 10.0205 32.014 10.5606 32.6691C11.1206 33.3242 11.5706 33.8601 11.9106 34.277L12.4506 34.9023C12.7907 35.2993 13.1707 35.6169 13.5907 35.8551C14.0308 36.0735 14.4608 36.2422 14.8809 36.3613C15.3208 36.4606 15.7209 36.53 16.0809 36.5697C16.3327 36.5829 16.5449 36.5917 16.7176 36.5961V36.5995H16.951H18.241H22.748V36.3018H22.478C22.238 36.3018 21.9979 36.2323 21.7579 36.0933C21.538 35.9345 21.378 35.7162 21.278 35.4383C21.1916 35.1985 21.1947 34.9144 21.287 34.586L23.3474 29.364H31.4392L33.4242 34.5919C33.5786 35.1088 33.5202 35.5199 33.2485 35.8253C32.9485 36.1429 32.6086 36.3018 32.2286 36.3018H31.9585V36.5995H38.7089V36.3018H38.5888H38.4689C38.0088 36.3018 37.5289 36.1628 37.0288 35.8849C36.5288 35.5871 36.1288 35.1008 35.8284 34.4259L27.7884 15.3395H27.5183C27.5183 15.4457 27.4914 15.5918 27.4377 15.7777C27.4112 15.87 27.378 15.972 27.3382 16.0839C27.2383 16.4214 27.1082 16.7688 26.9483 17.1261C26.8082 17.4834 26.6782 17.7911 26.5583 18.0491L26.4083 18.4065L19.5262 34.6282C19.2225 35.1989 18.8464 35.6178 18.3977 35.8849C18.2132 35.9917 18.0303 36.0781 17.8487 36.1438C17.7461 36.1809 17.6442 36.2115 17.5428 36.2354C17.2129 36.1807 16.9156 36.0936 16.6508 35.9742C16.2309 35.7757 15.8108 35.478 15.3908 35.0809L7.19826 25.5185L14.46 17.2025C14.801 16.8777 15.1913 16.614 15.6309 16.4115C16.2109 16.1534 16.8309 16.0244 17.4909 16.0244H17.6109V15.7564H17.4909H11.2807V16.0244H11.5807C11.9806 16.0244 12.2607 16.1733 12.4207 16.471C12.5948 16.759 12.5631 17.0656 12.3255 17.3908ZM31.1 28.4707H23.6998L27.471 18.9126L31.1 28.4707ZM4.26018 17.93V34.4259C4.28017 34.942 4.4703 35.3886 4.83028 35.7658C5.21024 36.1231 5.66025 36.3018 6.18029 36.3018H6.36034H6.57035V36.5995H4.26018H4.1703H2.40018H2.31015H0V36.3018H0.180063H0.390035C0.91008 36.3018 1.35002 36.1231 1.71014 35.7658C2.09011 35.3886 2.29016 34.942 2.31015 34.4259V17.93C2.29016 17.4139 2.09011 16.9772 1.71014 16.6199C1.35002 16.2427 0.91008 16.0542 0.390035 16.0542H0.180063H0V15.7564H2.31015H2.40018H4.1703H4.26018H6.57035V16.0542H6.36034H6.18029C5.66025 16.0542 5.21024 16.2427 4.83028 16.6199C4.4703 16.9772 4.28017 17.4139 4.26018 17.93ZM57.6926 28.2623V33.1753C57.2325 33.7708 56.6125 34.3663 55.8324 34.9618C55.0525 35.5574 54.0924 36.0536 52.9523 36.4506C51.8323 36.8278 50.5122 37.0164 48.9922 37.0164C46.872 36.9965 45.002 36.54 43.3818 35.6467C41.7617 34.7336 40.4917 33.473 39.5717 31.8651C38.6716 30.2374 38.2217 28.3417 38.2217 26.178C38.2217 24.0142 38.6716 22.1185 39.5717 20.4908C40.4917 18.863 41.7617 17.6025 43.3818 16.7092C45.002 15.7961 46.872 15.3395 48.9922 15.3395C50.0922 15.3395 51.0823 15.4289 51.9623 15.6075C52.8423 15.7862 53.6323 16.0343 54.3324 16.3519C55.0525 16.6497 55.7024 16.9871 56.2826 17.3643L56.8826 21.5627H56.6125C56.3125 20.4114 55.8125 19.4486 55.1125 18.6744C54.4324 17.8804 53.5724 17.275 52.5324 16.8581C51.4923 16.4412 50.3123 16.2328 48.9922 16.2328C47.3121 16.2328 45.8319 16.6497 44.5519 17.4834C43.2718 18.3171 42.2718 19.4784 41.5517 20.9672C40.8316 22.456 40.4717 24.1929 40.4717 26.178C40.4717 28.163 40.8316 29.8999 41.5517 31.3887C42.2718 32.8775 43.2718 34.0388 44.5519 34.8725C45.8319 35.6864 47.3121 36.1032 48.9922 36.1231C49.8722 36.1231 50.7123 36.0238 51.5123 35.8253C52.3324 35.607 53.1023 35.3092 53.8224 34.9321C54.5424 34.535 55.1826 34.0686 55.7425 33.5326L55.7725 28.2623C55.7725 27.369 55.2625 26.9224 54.2424 26.9224H53.7623V26.6246H59.6428V26.9224H59.1928C58.1527 26.9224 57.6526 27.369 57.6926 28.2623ZM82.3194 15.7564H86.1596C87.0597 15.7564 87.8697 15.8854 88.5897 16.1435C89.3298 16.4015 89.9498 16.7787 90.4498 17.275C90.9499 17.7514 91.3299 18.337 91.5899 19.0317C91.8699 19.7067 92.0099 20.4808 92.0099 21.3543C92.0099 22.3071 91.7799 23.2202 91.3199 24.0936C90.8799 24.9671 90.2698 25.6817 89.4898 26.2375C88.7297 26.7735 87.8697 27.0415 86.9097 27.0415C87.2497 27.1804 87.6197 27.4682 88.0197 27.905C88.4197 28.3218 88.7697 28.7288 89.0698 29.1258L89.4598 29.7213C89.7398 30.0984 90.0798 30.5649 90.4798 31.1208C90.8999 31.6766 91.3199 32.2225 91.7399 32.7584C92.1599 33.2944 92.52 33.7212 92.82 34.0388C93.22 34.4755 93.62 34.8626 94.02 35.2C94.4201 35.5375 94.8501 35.8055 95.3101 36.004C95.7901 36.2025 96.3202 36.3018 96.9002 36.3018V36.5995H95.2501C94.33 36.5995 93.53 36.4606 92.85 36.1826C92.1899 35.9047 91.6299 35.5673 91.1699 35.1703C90.8842 34.9112 90.6255 34.6599 90.3936 34.4162C90.2523 34.2677 90.1211 34.122 89.9998 33.9792C89.9398 33.8998 89.7698 33.6716 89.4898 33.2944C89.2298 32.9172 88.9098 32.4706 88.5297 31.9545C88.1697 31.4185 87.8097 30.8925 87.4497 30.3764C87.0897 29.8602 86.7796 29.4235 86.5196 29.0662C86.2596 28.6891 86.1096 28.4707 86.0696 28.4111C85.6896 27.9149 85.2696 27.4583 84.8095 27.0415C84.3495 26.6246 83.8495 26.4162 83.3095 26.4162V26.1184L83.7595 26.1482C84.0795 26.1482 84.4595 26.1383 84.8995 26.1184C85.4196 26.0986 85.9896 26.0192 86.6096 25.8802C87.2297 25.7412 87.8097 25.4534 88.3497 25.0167C88.8898 24.58 89.2998 23.915 89.5798 23.0217C89.6398 22.8034 89.6898 22.5354 89.7298 22.2178C89.7698 21.8803 89.7798 21.5528 89.7598 21.2352C89.7398 19.8853 89.3898 18.8134 88.7097 18.0194C88.0497 17.2055 87.1597 16.7688 86.0396 16.7092C85.4796 16.6695 84.8995 16.6596 84.2995 16.6795H82.8294H82.3194V34.4259C82.3194 34.942 82.5094 35.3886 82.8894 35.7658C83.2695 36.1231 83.7195 36.3018 84.2395 36.3018H84.4195H84.5995V36.5995H82.3194H82.2294H80.4593H80.3693H78.0592V36.3018H78.2392H78.4492C78.9692 36.3018 79.4092 36.1231 79.7693 35.7658C80.1493 35.3886 80.3493 34.942 80.3693 34.4259V17.93C80.3493 17.4139 80.1493 16.9772 79.7693 16.6199C79.4092 16.2427 78.9692 16.0542 78.4492 16.0542H78.2392H78.0592V15.7564H80.3693H80.4593H81.9294H82.3194ZM107.186 15.3395C109.326 15.3395 111.206 15.7961 112.826 16.7092C114.446 17.6025 115.706 18.863 116.606 20.4908C117.526 22.1185 117.986 24.0142 117.986 26.178C117.986 28.3417 117.526 30.2374 116.606 31.8651C115.706 33.4929 114.446 34.7633 112.826 35.6765C111.206 36.5697 109.326 37.0164 107.186 37.0164C105.066 37.0164 103.196 36.5697 101.575 35.6765C99.9553 34.7633 98.6853 33.4929 97.7652 31.8651C96.8652 30.2374 96.4152 28.3417 96.4152 26.178C96.4152 24.0142 96.8652 22.1185 97.7652 20.4908C98.6853 18.863 99.9553 17.6025 101.575 16.7092C103.196 15.7961 105.066 15.3395 107.186 15.3395ZM107.186 36.1231C108.886 36.1231 110.366 35.7062 111.626 34.8725C112.906 34.0388 113.896 32.8775 114.596 31.3887C115.316 29.8999 115.676 28.163 115.676 26.178C115.676 24.1929 115.316 22.456 114.596 20.9672C113.896 19.4784 112.906 18.3171 111.626 17.4834C110.366 16.6497 108.886 16.2328 107.186 16.2328C105.506 16.2328 104.026 16.6497 102.745 17.4834C101.485 18.3171 100.495 19.4784 99.7753 20.9672C99.0753 22.456 98.7253 24.1929 98.7253 26.178C98.7253 28.163 99.0753 29.8999 99.7753 31.3887C100.495 32.8775 101.485 34.0388 102.745 34.8725C104.026 35.7062 105.506 36.1231 107.186 36.1231ZM128.509 37.0164L120.089 17.9299L120.078 17.93C119.778 17.2551 119.379 16.7787 118.879 16.5008C118.379 16.203 117.898 16.0542 117.439 16.0542H117.318H117.199V15.7564H123.949V16.0542H123.678C123.299 16.0542 122.958 16.213 122.658 16.5306C122.378 16.8482 122.349 17.3047 122.569 17.9003L122.55 17.9005L128.835 33.5069L135.447 17.693C135.586 17.1977 135.523 16.8103 135.26 16.5306C134.96 16.213 134.619 16.0542 134.239 16.0542H133.97V15.7564H140V16.0542H139.85H139.729C139.29 16.0542 138.82 16.203 138.32 16.5008C137.82 16.7787 137.41 17.2551 137.09 17.93L137.084 17.9299L129.889 33.9495L129.709 34.3365C129.609 34.5748 129.479 34.8725 129.319 35.2298C129.179 35.5871 129.049 35.9345 128.929 36.272C128.829 36.6094 128.779 36.8576 128.779 37.0164H128.509ZM71.9538 12.4066H73.8289V36.5995H71.9538V12.4066ZM53.9529 45.4678V42.247C53.9575 42.1423 54.0035 42.0559 54.0904 41.9877C54.1403 41.9481 54.1956 41.9193 54.2562 41.9013C54.3071 41.8861 54.3619 41.8785 54.4205 41.8785H54.4617H54.5099L54.5168 41.8103H53.9529H53.9323H53.5405H53.5199H52.956V41.8785H52.9972H53.0523C53.1807 41.8785 53.2884 41.9149 53.3754 41.9877C53.4158 42.0178 53.4479 42.0515 53.4714 42.0888C53.5011 42.1358 53.5172 42.1886 53.5199 42.247V45.4678C53.5175 45.5174 53.5046 45.5636 53.4809 45.6065C53.4569 45.6501 53.4216 45.6903 53.3754 45.7271C53.2884 45.7999 53.1807 45.8362 53.0523 45.8362H53.0041H52.956V45.9045H53.5199H53.5405H53.9323H53.9529H54.5168L54.5099 45.8362H54.4617H54.4205C54.2922 45.8362 54.1821 45.7999 54.0904 45.7271C54.0035 45.6543 53.9575 45.5678 53.9529 45.4678ZM65.0491 41.7148L63.2959 45.1775L61.4811 41.7148H61.4123L60.8794 45.4473H60.8761C60.8623 45.5701 60.8095 45.6656 60.7178 45.7339C60.6309 45.8021 60.5277 45.8362 60.4085 45.8362H60.3535H60.3054V45.9045H60.8141H61.0204H61.1854H61.1922H61.5772V45.8431H61.4811C61.3802 45.8385 61.3114 45.8066 61.2748 45.7475C61.2467 45.6986 61.2307 45.6484 61.2269 45.5968L61.5388 42.8265L63.1934 46H63.2615C63.2803 45.9045 63.3078 45.8044 63.344 45.6998C63.3809 45.5906 63.4153 45.4973 63.4471 45.42L63.5021 45.304L64.7991 42.7685L65.1597 45.5496C65.1685 45.6133 65.1547 45.6771 65.1179 45.7407C65.086 45.8044 65.0172 45.8385 64.9122 45.8431H64.8085V45.9045H65.2072H65.5241H65.7298H66.2385V45.8362H66.1835H66.136C66.051 45.8362 65.9717 45.8174 65.8998 45.7799C65.8741 45.7668 65.8498 45.7515 65.826 45.7339C65.7435 45.6721 65.6904 45.588 65.6673 45.4815C65.6654 45.4704 65.6629 45.459 65.661 45.4473L65.111 41.7148H65.0491ZM76.4485 41.7148L74.6946 45.1775L72.8801 41.7148H72.8114L72.2782 45.4473H72.2751C72.2614 45.5701 72.2082 45.6656 72.117 45.7339C72.0557 45.7818 71.9864 45.8128 71.9095 45.8272C71.877 45.8332 71.8432 45.8362 71.8076 45.8362H71.7526H71.7045V45.9045H72.2132H72.4195H72.5845H72.5914H72.9764V45.8431H72.8801C72.7789 45.8385 72.7101 45.8066 72.6739 45.7475C72.6458 45.6989 72.6295 45.649 72.6258 45.5977L72.9377 42.8268L74.5921 46H74.6609C74.679 45.9045 74.7065 45.8044 74.7434 45.6998C74.7796 45.5906 74.814 45.4973 74.8465 45.42L74.9015 45.304L76.1978 42.7685L76.5585 45.5496C76.5672 45.6133 76.5535 45.6771 76.5172 45.7407C76.4847 45.8044 76.416 45.8385 76.311 45.8431H76.2078V45.9045H76.6066H76.9229H77.1291H77.6379V45.8362H77.5829H77.5348C77.4198 45.8362 77.3166 45.8021 77.2254 45.7339C77.1429 45.6724 77.0898 45.5888 77.0666 45.4831C77.0641 45.4715 77.0616 45.4595 77.0604 45.4473L76.5103 41.7148H76.4485ZM86.6096 41.8717C86.3302 41.7671 86.0296 41.7148 85.709 41.7148C85.3883 41.7148 85.0877 41.7671 84.8083 41.8717C84.5289 41.9718 84.2814 42.1174 84.0658 42.3084C83.8551 42.4995 83.6895 42.727 83.5707 42.9908C83.4513 43.2501 83.392 43.5389 83.392 43.8574C83.392 44.1758 83.4513 44.467 83.5707 44.7308C83.6895 44.9901 83.8551 45.2153 84.0658 45.4063C84.2814 45.5974 84.5289 45.7452 84.8083 45.8499C85.0877 45.9499 85.3883 46 85.709 46C86.0296 46 86.3302 45.9499 86.6096 45.8499C86.8934 45.7452 87.1409 45.5974 87.3522 45.4063C87.5678 45.2153 87.7347 44.9901 87.8541 44.7308C87.9735 44.467 88.0328 44.1758 88.0328 43.8574C88.0328 43.5389 87.9735 43.2501 87.8541 42.9908C87.7347 42.727 87.5678 42.4995 87.3522 42.3084C87.1409 42.1174 86.8934 41.9718 86.6096 41.8717ZM86.6303 45.5496C86.3552 45.7134 86.0477 45.7953 85.709 45.7953C85.3746 45.7953 85.0695 45.7134 84.7945 45.5496C84.5195 45.3859 84.3014 45.1585 84.1414 44.8673C83.9807 44.5761 83.9007 44.2395 83.9007 43.8574C83.9007 43.4707 83.9807 43.1341 84.1414 42.8475C84.3014 42.5564 84.5195 42.3289 84.7945 42.1651C85.0695 42.0014 85.3746 41.9195 85.709 41.9195C86.0477 41.9195 86.3552 42.0014 86.6303 42.1651C86.9053 42.3289 87.1228 42.5564 87.2834 42.8475C87.4441 43.1341 87.5241 43.4707 87.5241 43.8574C87.5241 44.2395 87.4441 44.5761 87.2834 44.8673C87.1228 45.1585 86.9053 45.3859 86.6303 45.5496Z" fill="#474747"/>
</svg>
