<svg width="34" height="33" viewBox="0 0 34 33" fill="none" xmlns="http://www.w3.org/2000/svg">
<path d="M32.2414 12.375H28.1379V11.6875C28.1379 11.5052 28.0762 11.3303 27.9662 11.2014C27.8563 11.0724 27.7072 11 27.5517 11H18.1724C18.0169 11 17.8678 11.0724 17.7579 11.2014C17.648 11.3303 17.5862 11.5052 17.5862 11.6875V12.375H7.03448V4.125C7.03448 3.39565 7.28153 2.69618 7.72127 2.18046C8.16101 1.66473 8.75742 1.375 9.37931 1.375C10.0012 1.375 10.5976 1.66473 11.0374 2.18046C11.4771 2.69618 11.7241 3.39565 11.7241 4.125C11.7241 4.30734 11.7859 4.4822 11.8958 4.61114C12.0058 4.74007 12.1549 4.8125 12.3103 4.8125C12.4658 4.8125 12.6149 4.74007 12.7249 4.61114C12.8348 4.4822 12.8966 4.30734 12.8966 4.125C12.8966 3.03098 12.526 1.98177 11.8664 1.20818C11.2068 0.434597 10.3121 0 9.37931 0C8.44648 0 7.55186 0.434597 6.89225 1.20818C6.23263 1.98177 5.86207 3.03098 5.86207 4.125V12.375H1.75862C1.29221 12.375 0.844894 12.5923 0.515088 12.9791C0.185283 13.3659 0 13.8905 0 14.4375V19.9375C0 22.3079 0.802892 24.5812 2.23205 26.2573C3.66121 27.9334 5.59956 28.875 7.62069 28.875H8.2069V32.3125C8.2069 32.4948 8.26866 32.6697 8.37859 32.7986C8.48853 32.9276 8.63763 33 8.7931 33C8.94858 33 9.09768 32.9276 9.20761 32.7986C9.31755 32.6697 9.37931 32.4948 9.37931 32.3125V28.875H24.6207V32.3125C24.6207 32.4948 24.6825 32.6697 24.7924 32.7986C24.9023 32.9276 25.0514 33 25.2069 33C25.3624 33 25.5115 32.9276 25.6214 32.7986C25.7313 32.6697 25.7931 32.4948 25.7931 32.3125V28.875H26.3793C28.4004 28.875 30.3388 27.9334 31.768 26.2573C33.1971 24.5812 34 22.3079 34 19.9375V14.4375C34 13.8905 33.8147 13.3659 33.4849 12.9791C33.1551 12.5923 32.7078 12.375 32.2414 12.375ZM18.7586 12.375H26.9655V19.25H18.7586V12.375ZM32.8276 19.9375C32.8276 21.9432 32.1482 23.8668 30.9389 25.285C29.7296 26.7032 28.0895 27.5 26.3793 27.5H7.62069C5.9105 27.5 4.27036 26.7032 3.06107 25.285C1.85178 23.8668 1.17241 21.9432 1.17241 19.9375V14.4375C1.17241 14.2552 1.23417 14.0803 1.34411 13.9514C1.45405 13.8224 1.60315 13.75 1.75862 13.75H17.5862V19.9375C17.5862 20.1198 17.648 20.2947 17.7579 20.4236C17.8678 20.5526 18.0169 20.625 18.1724 20.625H27.5517C27.7072 20.625 27.8563 20.5526 27.9662 20.4236C28.0762 20.2947 28.1379 20.1198 28.1379 19.9375V13.75H32.2414C32.3969 13.75 32.546 13.8224 32.6559 13.9514C32.7658 14.0803 32.8276 14.2552 32.8276 14.4375V19.9375Z" fill="white"/>
<path d="M32.2414 12.375H28.1379V11.6875C28.1379 11.5052 28.0762 11.3303 27.9662 11.2014C27.8563 11.0724 27.7072 11 27.5517 11H18.1724C18.0169 11 17.8678 11.0724 17.7579 11.2014C17.648 11.3303 17.5862 11.5052 17.5862 11.6875V12.375H7.03448V4.125C7.03448 3.39565 7.28153 2.69618 7.72127 2.18046C8.16101 1.66473 8.75742 1.375 9.37931 1.375C10.0012 1.375 10.5976 1.66473 11.0374 2.18046C11.4771 2.69618 11.7241 3.39565 11.7241 4.125C11.7241 4.30734 11.7859 4.4822 11.8958 4.61114C12.0058 4.74007 12.1549 4.8125 12.3103 4.8125C12.4658 4.8125 12.6149 4.74007 12.7249 4.61114C12.8348 4.4822 12.8966 4.30734 12.8966 4.125C12.8966 3.03098 12.526 1.98177 11.8664 1.20818C11.2068 0.434597 10.3121 0 9.37931 0C8.44648 0 7.55186 0.434597 6.89225 1.20818C6.23263 1.98177 5.86207 3.03098 5.86207 4.125V12.375H1.75862C1.29221 12.375 0.844894 12.5923 0.515088 12.9791C0.185283 13.3659 0 13.8905 0 14.4375V19.9375C0 22.3079 0.802892 24.5812 2.23205 26.2573C3.66121 27.9334 5.59956 28.875 7.62069 28.875H8.2069V32.3125C8.2069 32.4948 8.26866 32.6697 8.37859 32.7986C8.48853 32.9276 8.63763 33 8.7931 33C8.94858 33 9.09768 32.9276 9.20761 32.7986C9.31755 32.6697 9.37931 32.4948 9.37931 32.3125V28.875H24.6207V32.3125C24.6207 32.4948 24.6825 32.6697 24.7924 32.7986C24.9023 32.9276 25.0514 33 25.2069 33C25.3624 33 25.5115 32.9276 25.6214 32.7986C25.7313 32.6697 25.7931 32.4948 25.7931 32.3125V28.875H26.3793C28.4004 28.875 30.3388 27.9334 31.768 26.2573C33.1971 24.5812 34 22.3079 34 19.9375V14.4375C34 13.8905 33.8147 13.3659 33.4849 12.9791C33.1551 12.5923 32.7078 12.375 32.2414 12.375ZM18.7586 12.375H26.9655V19.25H18.7586V12.375ZM32.8276 19.9375C32.8276 21.9432 32.1482 23.8668 30.9389 25.285C29.7296 26.7032 28.0895 27.5 26.3793 27.5H7.62069C5.9105 27.5 4.27036 26.7032 3.06107 25.285C1.85178 23.8668 1.17241 21.9432 1.17241 19.9375V14.4375C1.17241 14.2552 1.23417 14.0803 1.34411 13.9514C1.45405 13.8224 1.60315 13.75 1.75862 13.75H17.5862V19.9375C17.5862 20.1198 17.648 20.2947 17.7579 20.4236C17.8678 20.5526 18.0169 20.625 18.1724 20.625H27.5517C27.7072 20.625 27.8563 20.5526 27.9662 20.4236C28.0762 20.2947 28.1379 20.1198 28.1379 19.9375V13.75H32.2414C32.3969 13.75 32.546 13.8224 32.6559 13.9514C32.7658 14.0803 32.8276 14.2552 32.8276 14.4375V19.9375Z"/>
</svg>
