<svg width="34" height="33" viewBox="0 0 31 34" fill="none" xmlns="http://www.w3.org/2000/svg">
<path fill-rule="evenodd" clip-rule="evenodd" d="M2.29081 2.29081C2.79716 1.78446 3.48392 1.5 4.2 1.5H26.6C27.3161 1.5 28.0028 1.78446 28.5092 2.29081C29.0155 2.79716 29.3 3.48392 29.3 4.2V10.0994H17.5V7.39941C17.5 7.12327 17.2761 6.89941 17 6.89941C16.7239 6.89941 16.5 7.12327 16.5 7.39941V10.5994C16.5 10.8756 16.7239 11.0994 17 11.0994H29.3V29.8C29.3 30.5161 29.0155 31.2028 28.5092 31.7092C28.0028 32.2155 27.3161 32.5 26.6 32.5H4.2C3.48392 32.5 2.79716 32.2155 2.29081 31.7092C1.78446 31.2028 1.5 30.5161 1.5 29.8V11.0994H13.8C14.0761 11.0994 14.3 10.8756 14.3 10.5994V7.39941C14.3 7.12327 14.0761 6.89941 13.8 6.89941C13.5239 6.89941 13.3 7.12327 13.3 7.39941V10.0994H1.5V4.2C1.5 3.48392 1.78446 2.79716 2.29081 2.29081ZM0.5 10.5994V4.2C0.5 3.2187 0.88982 2.27759 1.5837 1.5837C2.27759 0.88982 3.2187 0.5 4.2 0.5H26.6C27.5813 0.5 28.5224 0.88982 29.2163 1.5837C29.9102 2.27759 30.3 3.2187 30.3 4.2V10.5994V29.8C30.3 30.7813 29.9102 31.7224 29.2163 32.4163C28.5224 33.1102 27.5813 33.5 26.6 33.5H4.2C3.2187 33.5 2.27759 33.1102 1.5837 32.4163C0.88982 31.7224 0.5 30.7813 0.5 29.8V10.5994Z" fill="white"/>
</svg>
