<svg width="21" height="21" viewBox="0 0 21 21" fill="none" xmlns="http://www.w3.org/2000/svg">
<mask id="path-1-inside-1_818_132" fill="white">
<path d="M19.4453 0.00215017C19.186 0.0231564 18.9314 0.090893 18.6916 0.202717H18.6883C18.4581 0.30435 17.3634 0.817011 15.6992 1.5941L9.73544 4.39035C5.45611 6.39602 1.24949 8.37111 1.24949 8.37111L1.29958 8.34952C1.29958 8.34952 1.00955 8.45566 0.706595 8.6868C0.519432 8.81939 0.358378 8.99288 0.233178 9.19676C0.0845286 9.4396 -0.0350373 9.81106 0.00939597 10.1951C0.082105 10.8445 0.460192 11.2339 0.731639 11.4489C1.00632 11.6665 1.26807 11.7682 1.26807 11.7682H1.27453L5.2194 13.2477C5.39633 13.88 6.42152 17.6323 6.66793 18.4966C6.81334 19.0129 6.95472 19.3358 7.13165 19.5822C7.21728 19.7081 7.31746 19.8133 7.43783 19.8979C7.50041 19.9384 7.56714 19.9704 7.63657 19.9932L7.59618 19.9824C7.6083 19.986 7.61799 19.9968 7.62688 20.0004C7.65919 20.0103 7.68101 20.0139 7.72221 20.0211C8.3467 20.2316 8.84839 19.7998 8.84839 19.7998L8.87666 19.7747L11.2058 17.4137L15.1094 20.7478L15.1983 20.7901C16.0118 21.1876 16.8359 20.9664 17.2713 20.576C17.71 20.183 17.8805 19.6802 17.8805 19.6802L17.9087 19.5993L20.9254 2.39457C21.011 1.97005 21.0328 1.57251 20.9383 1.18667C20.8408 0.796167 20.6158 0.460313 20.3073 0.244989C20.0483 0.0697088 19.748 -0.0148949 19.4453 0.00215017ZM19.3637 1.84593C19.3605 1.90259 19.3702 1.8963 19.3476 2.00512V2.01502L16.3592 19.0407C16.3463 19.065 16.3245 19.1181 16.2647 19.1712C16.2017 19.2269 16.1516 19.262 15.889 19.146L11.1145 15.0708L8.23036 17.9974L8.83627 13.6893L16.6371 5.59465C16.9587 5.26187 16.8512 5.19171 16.8512 5.19171C16.8738 4.78339 16.3657 5.07209 16.3657 5.07209L6.52897 11.8563L6.52574 11.8383L1.81096 10.071V10.0674L1.79885 10.0647C1.80711 10.0616 1.8152 10.058 1.82308 10.0539L1.84893 10.0395L1.87398 10.0296C1.87398 10.0296 6.08383 8.05452 10.3632 6.04885C12.5057 5.04421 14.6643 4.03238 16.3245 3.2517C17.3091 2.79031 18.2947 2.33161 19.2813 1.87561C19.3476 1.84683 19.3161 1.84683 19.3637 1.84683V1.84593Z"/>
</mask>
<path d="M19.4453 0.00215017C19.186 0.0231564 18.9314 0.090893 18.6916 0.202717H18.6883C18.4581 0.30435 17.3634 0.817011 15.6992 1.5941L9.73544 4.39035C5.45611 6.39602 1.24949 8.37111 1.24949 8.37111L1.29958 8.34952C1.29958 8.34952 1.00955 8.45566 0.706595 8.6868C0.519432 8.81939 0.358378 8.99288 0.233178 9.19676C0.0845286 9.4396 -0.0350373 9.81106 0.00939597 10.1951C0.082105 10.8445 0.460192 11.2339 0.731639 11.4489C1.00632 11.6665 1.26807 11.7682 1.26807 11.7682H1.27453L5.2194 13.2477C5.39633 13.88 6.42152 17.6323 6.66793 18.4966C6.81334 19.0129 6.95472 19.3358 7.13165 19.5822C7.21728 19.7081 7.31746 19.8133 7.43783 19.8979C7.50041 19.9384 7.56714 19.9704 7.63657 19.9932L7.59618 19.9824C7.6083 19.986 7.61799 19.9968 7.62688 20.0004C7.65919 20.0103 7.68101 20.0139 7.72221 20.0211C8.3467 20.2316 8.84839 19.7998 8.84839 19.7998L8.87666 19.7747L11.2058 17.4137L15.1094 20.7478L15.1983 20.7901C16.0118 21.1876 16.8359 20.9664 17.2713 20.576C17.71 20.183 17.8805 19.6802 17.8805 19.6802L17.9087 19.5993L20.9254 2.39457C21.011 1.97005 21.0328 1.57251 20.9383 1.18667C20.8408 0.796167 20.6158 0.460313 20.3073 0.244989C20.0483 0.0697088 19.748 -0.0148949 19.4453 0.00215017ZM19.3637 1.84593C19.3605 1.90259 19.3702 1.8963 19.3476 2.00512V2.01502L16.3592 19.0407C16.3463 19.065 16.3245 19.1181 16.2647 19.1712C16.2017 19.2269 16.1516 19.262 15.889 19.146L11.1145 15.0708L8.23036 17.9974L8.83627 13.6893L16.6371 5.59465C16.9587 5.26187 16.8512 5.19171 16.8512 5.19171C16.8738 4.78339 16.3657 5.07209 16.3657 5.07209L6.52897 11.8563L6.52574 11.8383L1.81096 10.071V10.0674L1.79885 10.0647C1.80711 10.0616 1.8152 10.058 1.82308 10.0539L1.84893 10.0395L1.87398 10.0296C1.87398 10.0296 6.08383 8.05452 10.3632 6.04885C12.5057 5.04421 14.6643 4.03238 16.3245 3.2517C17.3091 2.79031 18.2947 2.33161 19.2813 1.87561C19.3476 1.84683 19.3161 1.84683 19.3637 1.84683V1.84593Z" fill="#ECE7E4"/>
<path d="M19.4453 0.00215017L17.3652 -36.9393L16.9113 -36.9138L16.4582 -36.8771L19.4453 0.00215017ZM18.6916 0.202717V37.2027H26.8931L34.3264 33.737L18.6916 0.202717ZM18.6883 0.202717V-36.7973H10.8854L3.74702 -33.6463L18.6883 0.202717ZM15.6992 1.5941L0.0450619 -31.9312L0.0183915 -31.9188L-0.00825901 -31.9063L15.6992 1.5941ZM9.73544 4.39035L25.4378 37.8931L25.4429 37.8907L9.73544 4.39035ZM1.24949 8.37111L-14.4757 -25.121L15.8927 42.3502L1.24949 8.37111ZM1.29958 8.34952L15.9428 42.3286L-11.4153 -26.3972L1.29958 8.34952ZM0.706595 8.6868L22.0951 38.8784L22.6295 38.4998L23.1501 38.1026L0.706595 8.6868ZM0.233178 9.19676L-31.2967 -10.1648L-31.3103 -10.1426L-31.3239 -10.1203L0.233178 9.19676ZM0.00939597 10.1951L36.7796 6.078L36.772 6.01031L36.7642 5.94265L0.00939597 10.1951ZM0.731639 11.4489L23.7108 -17.5504L23.7017 -17.5576L0.731639 11.4489ZM1.26807 11.7682L-12.1241 46.2595L-5.66297 48.7682H1.26807V11.7682ZM1.27453 11.7682L14.2676 -22.8755L7.98474 -25.2318H1.27453V11.7682ZM5.2194 13.2477L40.8507 3.27731L35.7915 -14.8029L18.2125 -21.3959L5.2194 13.2477ZM6.66793 18.4966L42.282 8.46493L42.2662 8.40884L42.2503 8.35279L6.66793 18.4966ZM7.13165 19.5822L37.7266 -1.22523L37.4621 -1.61412L37.1878 -1.99616L7.13165 19.5822ZM7.43783 19.8979L-13.8279 50.1761L-13.2581 50.5763L-12.6735 50.9548L7.43783 19.8979ZM7.63657 19.9932L-1.91374 55.7394L19.1819 -15.1594L7.63657 19.9932ZM7.59618 19.9824L17.1465 -15.7638L-2.93406 55.4523L7.59618 19.9824ZM7.62688 20.0004L-6.25737 54.2966L-4.75472 54.9049L-3.20462 55.3795L7.62688 20.0004ZM7.72221 20.0211L19.5387 -15.0413L16.8658 -15.9421L14.0873 -16.4273L7.72221 20.0211ZM8.84839 19.7998L32.9822 47.8455L33.2211 47.6399L33.4566 47.4302L8.84839 19.7998ZM8.87666 19.7747L33.4848 47.4051L34.3773 46.6102L35.2165 45.7595L8.87666 19.7747ZM11.2058 17.4137L35.2356 -10.7211L9.05021 -33.0859L-15.1341 -8.5711L11.2058 17.4137ZM15.1094 20.7478L-8.92034 48.8827L-5.20087 52.0594L-0.783654 54.1605L15.1094 20.7478ZM15.1983 20.7901L31.4428 -12.4532L31.2676 -12.5388L31.0914 -12.6226L15.1983 20.7901ZM17.2713 20.576L-7.41888 -6.98107L-7.42579 -6.97487L17.2713 20.576ZM17.8805 19.6802L-17.0498 7.47858L-17.1058 7.63893L-17.1603 7.79979L17.8805 19.6802ZM17.9087 19.5993L52.839 31.8009L53.8325 28.9567L54.3528 25.9893L17.9087 19.5993ZM20.9254 2.39457L-15.3441 -4.92179L-15.4373 -4.45972L-15.5187 -3.99541L20.9254 2.39457ZM20.9383 1.18667L56.8757 -7.61704L56.8562 -7.69634L56.8365 -7.77554L20.9383 1.18667ZM20.3073 0.244989L41.4874 -30.0932L41.2676 -30.2467L41.0456 -30.3969L20.3073 0.244989ZM19.3637 1.84593H56.3637L-17.5762 -0.26079L19.3637 1.84593ZM19.3476 2.00512L-16.8782 -5.52462L-17.6524 -1.79956V2.00512H19.3476ZM19.3476 2.01502L55.7905 8.41144L56.3476 5.23749V2.01502H19.3476ZM16.3592 19.0407L49.0205 36.4259L51.785 31.2322L52.8021 25.4372L16.3592 19.0407ZM16.2647 19.1712L40.7848 46.8798L40.8057 46.8612L40.8266 46.8427L16.2647 19.1712ZM15.889 19.146L-8.13148 47.2887L-4.01553 50.8018L0.934103 52.989L15.889 19.146ZM11.1145 15.0708L35.135 -13.072L8.9369 -35.4327L-15.2393 -10.9L11.1145 15.0708ZM8.23036 17.9974L-28.409 12.8444L-44.0019 123.713L34.5841 43.9682L8.23036 17.9974ZM8.83627 13.6893L-17.8057 -11.9857L-26.132 -3.34583L-27.8031 8.53623L8.83627 13.6893ZM16.6371 5.59465L-9.97149 -20.1149L-9.98815 -20.0977L-10.0048 -20.0804L16.6371 5.59465ZM16.8512 5.19171L-20.0921 3.14513L-21.2744 24.4874L-3.37654 36.173L16.8512 5.19171ZM16.3657 5.07209L-1.91193 -27.0982L-3.31375 -26.3018L-4.64098 -25.3864L16.3657 5.07209ZM6.52897 11.8563L-29.8881 18.3982L-19.7352 74.9167L27.5356 42.3148L6.52897 11.8563ZM6.52574 11.8383L42.9428 5.29641L39.2214 -15.4198L19.5127 -22.8076L6.52574 11.8383ZM1.81096 10.071H-35.189V35.7156L-11.176 44.7169L1.81096 10.071ZM1.81096 10.0674H38.811V-19.6007L9.85193 -26.0483L1.81096 10.0674ZM1.79885 10.0647L-11.0319 -24.6394L-128.786 18.8966L-6.24212 46.1804L1.79885 10.0647ZM1.82308 10.0539L19.0124 42.8186L19.4185 42.6056L19.8191 42.3826L1.82308 10.0539ZM1.84893 10.0395L-11.7443 -24.3731L-14.0144 -23.4763L-16.1471 -22.2892L1.84893 10.0395ZM1.87398 10.0296L15.4672 44.4422L16.5425 44.0174L17.5893 43.5263L1.87398 10.0296ZM10.3632 6.04885L26.0655 39.5516L26.0716 39.5488L10.3632 6.04885ZM16.3245 3.2517L0.624302 -30.2521L0.601953 -30.2416L0.579617 -30.2311L16.3245 3.2517ZM19.2813 1.87561L4.53779 -32.06L4.14604 -31.8898L3.75833 -31.7106L19.2813 1.87561ZM19.3637 1.84683V38.8468H56.3637V1.84683H19.3637ZM16.4582 -36.8771C11.7422 -36.4951 7.21102 -35.2685 3.05673 -33.3316L34.3264 33.737C30.6518 35.4503 26.6298 36.5414 22.4325 36.8814L16.4582 -36.8771ZM18.6916 -36.7973H18.6883V37.2027H18.6916V-36.7973ZM3.74702 -33.6463C3.48262 -33.5296 3.25623 -33.4261 3.16896 -33.3862C3.04717 -33.3305 2.92659 -33.2748 2.82125 -33.2261C2.60963 -33.1282 2.35955 -33.0118 2.0965 -32.8891C1.57445 -32.6457 0.852324 -32.3082 0.0450619 -31.9312L31.3533 35.1194C32.2103 34.7193 32.8676 34.412 33.3665 34.1794C33.614 34.064 33.7847 33.9846 33.8951 33.9335C33.9508 33.9078 33.9665 33.9006 33.9552 33.9058C33.9487 33.9088 33.9211 33.9214 33.8787 33.9406C33.8433 33.9565 33.7525 33.9975 33.6297 34.0517L3.74702 -33.6463ZM-0.00825901 -31.9063L-5.97202 -29.11L25.4429 37.8907L31.4066 35.0945L-0.00825901 -31.9063ZM-5.96692 -29.1124C-8.11341 -28.1064 -10.2403 -27.1087 -11.8298 -26.3628C-12.6247 -25.9898 -13.2858 -25.6795 -13.7482 -25.4625C-13.9795 -25.3539 -14.1611 -25.2686 -14.285 -25.2105C-14.347 -25.1814 -14.3946 -25.159 -14.4267 -25.144C-14.4427 -25.1364 -14.4549 -25.1307 -14.4631 -25.1269C-14.4672 -25.1249 -14.4704 -25.1235 -14.4725 -25.1225C-14.4735 -25.122 -14.4743 -25.1216 -14.4748 -25.1214C-14.4751 -25.1212 -14.4753 -25.1211 -14.4755 -25.1211C-14.4755 -25.121 -14.4756 -25.121 -14.4756 -25.121C-14.4757 -25.121 -14.4757 -25.121 1.24949 8.37111C16.9747 41.8632 16.9747 41.8632 16.9747 41.8632C16.9747 41.8631 16.9748 41.8631 16.9748 41.8631C16.9749 41.863 16.9751 41.863 16.9754 41.8629C16.9758 41.8626 16.9766 41.8623 16.9776 41.8618C16.9795 41.8609 16.9825 41.8595 16.9865 41.8576C16.9945 41.8539 17.0064 41.8483 17.0222 41.8409C17.0538 41.826 17.1008 41.8039 17.1622 41.7751C17.2851 41.7174 17.4655 41.6327 17.6955 41.5248C18.1555 41.3089 18.8136 41 19.6052 40.6285C21.1889 39.8854 23.305 38.8928 25.4378 37.8931L-5.96692 -29.1124ZM15.8927 42.3502L15.9428 42.3286L-13.3436 -25.6295L-13.3937 -25.608L15.8927 42.3502ZM1.29958 8.34952C-11.4153 -26.3972 -11.4215 -26.3949 -11.4277 -26.3926C-11.4298 -26.3919 -11.436 -26.3896 -11.4402 -26.3881C-11.4485 -26.385 -11.4568 -26.3819 -11.4651 -26.3789C-11.4818 -26.3728 -11.4986 -26.3666 -11.5154 -26.3604C-11.549 -26.348 -11.5829 -26.3354 -11.6171 -26.3227C-11.6854 -26.2972 -11.7548 -26.2711 -11.8253 -26.2444C-11.9663 -26.1909 -12.1118 -26.1347 -12.2617 -26.0758C-12.561 -25.958 -12.8802 -25.828 -13.217 -25.6849C-13.8853 -25.4011 -14.651 -25.0537 -15.4872 -24.6338C-17.0846 -23.8316 -19.312 -22.5792 -21.7369 -20.729L23.1501 38.1026C21.0281 39.7216 19.0972 40.8055 17.7205 41.4968C16.9948 41.8612 16.3205 42.1676 15.7161 42.4244C15.4112 42.5539 15.117 42.6738 14.8348 42.7848C14.6934 42.8405 14.5544 42.8941 14.4178 42.9459C14.3495 42.9718 14.2818 42.9973 14.2145 43.0223C14.1809 43.0349 14.1475 43.0473 14.1141 43.0596C14.0974 43.0657 14.0808 43.0719 14.0642 43.078C14.0559 43.081 14.0476 43.0841 14.0393 43.0871C14.0351 43.0886 14.0289 43.0909 14.0269 43.0917C14.0206 43.0939 14.0144 43.0962 1.29958 8.34952ZM-20.6819 -21.5048C-25.1216 -18.3596 -28.6719 -14.4392 -31.2967 -10.1648L31.763 28.5583C29.3886 32.4249 26.1605 35.9984 22.0951 38.8784L-20.6819 -21.5048ZM-31.3239 -10.1203C-34.9812 -4.14567 -37.9046 4.42854 -36.7454 14.4476L36.7642 5.94265C37.3285 10.8197 36.8128 15.1512 35.9386 18.639C35.0765 22.0783 33.6911 25.4085 31.7903 28.5139L-31.3239 -10.1203ZM-36.7608 14.3122C-35.1427 28.7637 -26.3852 37.1715 -22.2385 40.4553L23.7017 -17.5576C27.3056 -14.7037 35.3069 -7.07471 36.7796 6.078L-36.7608 14.3122ZM-22.2475 40.4482C-19.8988 42.3093 -17.7312 43.5876 -16.1562 44.4182C-15.3341 44.8517 -14.5789 45.2128 -13.9167 45.5097C-13.583 45.6593 -13.2661 45.7958 -12.9683 45.9198C-12.8192 45.9819 -12.6742 46.0411 -12.5336 46.0977C-12.4633 46.1259 -12.394 46.1535 -12.3257 46.1805C-12.2916 46.194 -12.2578 46.2073 -12.2241 46.2205C-12.2073 46.227 -12.1906 46.2336 -12.1739 46.2401C-12.1656 46.2433 -12.1573 46.2466 -12.1489 46.2498C-12.1448 46.2514 -12.1386 46.2538 -12.1365 46.2546C-12.1303 46.2571 -12.1241 46.2595 1.26807 11.7682C14.6602 -22.7232 14.6664 -22.7207 14.6726 -22.7183C14.6747 -22.7175 14.6809 -22.7151 14.6851 -22.7135C14.6934 -22.7103 14.7017 -22.707 14.71 -22.7038C14.7266 -22.6973 14.7432 -22.6908 14.7599 -22.6843C14.7933 -22.6712 14.8267 -22.658 14.8604 -22.6448C14.9276 -22.6182 14.9954 -22.5912 15.0637 -22.5637C15.2004 -22.5088 15.3395 -22.4519 15.4809 -22.393C15.7633 -22.2754 16.0576 -22.1486 16.3624 -22.012C16.967 -21.7409 17.6396 -21.4188 18.3619 -21.0379C19.7374 -20.3125 21.6367 -19.1939 23.7108 -17.5504L-22.2475 40.4482ZM1.26807 48.7682H1.27453V-25.2318H1.26807V48.7682ZM-11.7185 46.4118L-7.77367 47.8913L18.2125 -21.3959L14.2676 -22.8755L-11.7185 46.4118ZM-30.4119 23.2181C-30.4138 23.2113 -30.4095 23.2268 -30.3958 23.2761C-30.3833 23.3213 -30.3669 23.3807 -30.3463 23.4554C-30.305 23.6051 -30.2527 23.7951 -30.1911 24.0192C-30.0593 24.4987 -29.9256 24.9862 -29.7596 25.5899C-29.4785 26.6129 -29.0991 27.9925 -28.9144 28.6404L42.2503 8.35279C42.2512 8.35615 42.2326 8.29054 42.1855 8.12144C42.1428 7.96799 42.0891 7.77425 42.0259 7.54566C41.8996 7.08872 41.7485 6.53957 41.5949 5.98032C41.315 4.96187 40.9701 3.70374 40.8507 3.27731L-30.4119 23.2181ZM-28.9462 28.5283C-28.2863 30.8711 -26.7102 35.8876 -22.9245 41.1605L37.1878 -1.99616C40.6196 2.78395 41.913 7.15463 42.282 8.46493L-28.9462 28.5283ZM-23.4633 40.3896C-21.1569 43.7809 -18.006 47.2416 -13.8279 50.1761L28.7036 -10.3803C32.6409 -7.61492 35.5915 -4.36468 37.7266 -1.22523L-23.4633 40.3896ZM-12.6735 50.9548C-9.99734 52.6878 -7.05809 54.1115 -3.90879 55.1458L19.1819 -15.1594C22.1924 -14.1706 24.9982 -12.811 27.5492 -11.159L-12.6735 50.9548ZM17.1869 -15.753L17.1465 -15.7638L-1.95413 55.7286L-1.91374 55.7394L17.1869 -15.753ZM-2.93406 55.4523C-6.4278 54.4151 -9.09509 53.0591 -10.7654 52.1037C-12.3902 51.1744 -13.5822 50.3211 -13.8577 50.1248C-13.9453 50.0624 -14.014 50.0128 -14.0228 50.0065C-14.0557 49.9827 -13.9959 50.0259 -13.9462 50.0616C-13.8457 50.1336 -13.4717 50.402 -12.9827 50.7297C-12.4896 51.0603 -11.6769 51.5887 -10.6369 52.1789C-9.60143 52.7664 -8.11594 53.5442 -6.25737 54.2966L21.5111 -14.2958C23.3675 -13.5443 24.8507 -12.7676 25.8839 -12.1813C26.9216 -11.5925 27.732 -11.0656 28.2228 -10.7366C28.7094 -10.4104 29.081 -10.1437 29.1791 -10.0734C29.2276 -10.0386 29.2862 -9.99632 29.252 -10.021C29.242 -10.0281 29.172 -10.0787 29.0832 -10.1419C28.8027 -10.3418 27.6054 -11.1988 25.9751 -12.1312C24.2993 -13.0898 21.6262 -14.4485 18.1264 -15.4875L-2.93406 55.4523ZM-3.20462 55.3795C-2.02393 55.741 -0.89773 56.0221 0.161715 56.2417C0.606342 56.3339 0.960501 56.3987 1.1329 56.4298C1.2697 56.4544 1.42967 56.4822 1.35707 56.4695L14.0873 -16.4273C13.9941 -16.4436 14.1359 -16.419 14.256 -16.3973C14.4118 -16.3693 14.7507 -16.3073 15.1807 -16.2182C16.2109 -16.0046 17.31 -15.7302 18.4584 -15.3787L-3.20462 55.3795ZM-4.09425 55.0835C6.9816 58.8162 16.6489 56.5942 22.294 54.3298C25.1284 53.1929 27.3871 51.8935 29.0283 50.8189C29.8721 50.2664 30.6183 49.7302 31.2647 49.2372C31.5898 48.9892 31.8949 48.7481 32.1799 48.5165C32.3225 48.4006 32.4607 48.2866 32.5942 48.1748C32.661 48.1188 32.7268 48.0634 32.7914 48.0086C32.8237 47.9811 32.8558 47.9538 32.8876 47.9267C32.9035 47.9131 32.9193 47.8995 32.9351 47.886C32.943 47.8792 32.9548 47.8691 32.9587 47.8657C32.9704 47.8556 32.9822 47.8455 8.84839 19.7998C-15.2854 -8.24583 -15.2737 -8.25593 -15.2619 -8.26603C-15.258 -8.2694 -15.2462 -8.27952 -15.2383 -8.28626C-15.2226 -8.29976 -15.2068 -8.31327 -15.191 -8.32681C-15.1593 -8.35388 -15.1274 -8.38103 -15.0954 -8.40826C-15.0312 -8.46271 -14.9662 -8.5175 -14.9004 -8.57261C-14.7687 -8.68278 -14.6335 -8.79439 -14.4947 -8.90724C-14.2174 -9.13263 -13.9236 -9.36462 -13.6135 -9.60119C-12.9969 -10.0715 -12.2948 -10.5756 -11.5079 -11.0909C-9.98022 -12.0911 -7.88596 -13.2957 -5.25505 -14.351C-0.0168624 -16.4521 9.0873 -18.5635 19.5387 -15.0413L-4.09425 55.0835ZM33.4566 47.4302L33.4848 47.4051L-15.7315 -7.85573L-15.7598 -7.83054L33.4566 47.4302ZM35.2165 45.7595L37.5457 43.3985L-15.1341 -8.5711L-17.4632 -6.21016L35.2165 45.7595ZM-12.824 45.5486L-8.92034 48.8827L39.1392 -7.38703L35.2356 -10.7211L-12.824 45.5486ZM-0.783654 54.1605L-0.694788 54.2028L31.0914 -12.6226L31.0025 -12.6649L-0.783654 54.1605ZM-1.04618 54.0334C13.8836 61.3289 30.8076 58.1317 41.9684 48.1269L-7.42579 -6.97487C2.86418 -16.199 18.1401 -18.9536 31.4428 -12.4532L-1.04618 54.0334ZM41.9615 48.1331C46.1116 44.4148 48.6325 40.554 50.0585 37.9957C50.8176 36.6339 51.4052 35.3901 51.8547 34.3414C52.0823 33.8103 52.2824 33.311 52.4576 32.85C52.5455 32.6188 52.6278 32.3956 52.7048 32.181C52.7433 32.0736 52.7806 31.9682 52.8166 31.8649C52.8346 31.8132 52.8524 31.762 52.8698 31.7113C52.8785 31.6859 52.8872 31.6607 52.8957 31.6356C52.9 31.6231 52.9043 31.6105 52.9085 31.598C52.9107 31.5918 52.9138 31.5824 52.9149 31.5793C52.9181 31.57 52.9212 31.5607 17.8805 19.6802C-17.1603 7.79979 -17.1571 7.79046 -17.154 7.78113C-17.1529 7.77802 -17.1497 7.76868 -17.1476 7.76245C-17.1434 7.74999 -17.1391 7.73752 -17.1349 7.72503C-17.1263 7.70005 -17.1178 7.675 -17.1091 7.64989C-17.0919 7.59968 -17.0744 7.54922 -17.0567 7.49849C-17.0213 7.39706 -16.9851 7.29453 -16.9479 7.19093C-16.8736 6.98388 -16.7954 6.77184 -16.7131 6.55523C-16.5488 6.12322 -16.3656 5.66624 -16.1608 5.18848C-15.7569 4.24628 -15.2394 3.15276 -14.5777 1.96581C-13.3466 -0.242843 -11.1303 -3.65578 -7.41887 -6.98107L41.9615 48.1331ZM52.8107 31.8819L52.839 31.8009L-17.0215 7.39764L-17.0498 7.47858L52.8107 31.8819ZM54.3528 25.9893L57.3694 8.78454L-15.5187 -3.99541L-18.5353 13.2093L54.3528 25.9893ZM57.1948 9.71093C57.8942 6.24373 58.7243 -0.0709294 56.8757 -7.61704L-14.9991 9.99037C-16.6586 3.21595 -15.8722 -2.30364 -15.3441 -4.92179L57.1948 9.71093ZM56.8365 -7.77554C54.7391 -16.1766 49.6595 -24.388 41.4874 -30.0932L-0.872695 30.5832C-8.428 25.3086 -13.0575 17.769 -14.9599 10.1489L56.8365 -7.77554ZM41.0456 -30.3969C34.3029 -34.9603 26.0285 -37.4272 17.3652 -36.9393L21.5255 36.9436C13.4675 37.3974 5.7938 35.0997 -0.430908 30.8869L41.0456 -30.3969ZM-17.5762 -0.26079C-17.642 0.891609 -17.6401 1.80826 -17.6347 2.29097C-17.6282 2.87021 -17.6567 1.58734 -17.6041 0.343401C-17.477 -2.66307 -16.9952 -4.96129 -16.8782 -5.52462L55.5733 9.53487C55.713 8.86271 56.2012 6.51322 56.3299 3.46853C56.3833 2.20548 56.3545 0.906756 56.3607 1.46783C56.3659 1.93239 56.3678 2.82858 56.3037 3.95265L-17.5762 -0.26079ZM-17.6524 2.00512V2.01502H56.3476V2.00512H-17.6524ZM-17.0953 -4.38141L-20.0837 12.6443L52.8021 25.4372L55.7905 8.41144L-17.0953 -4.38141ZM-16.302 1.65556C-16.4449 1.924 -16.5548 2.13865 -16.6098 2.24654C-16.6398 2.30536 -16.6638 2.3529 -16.6779 2.38084C-16.6913 2.4074 -16.7023 2.42933 -16.7025 2.42961C-16.7203 2.46504 -16.6098 2.24413 -16.4752 1.98534C-16.1724 1.4035 -15.6492 0.434522 -14.9185 -0.717957C-13.4003 -3.11234 -11.2616 -5.86912 -8.29721 -8.50034L40.8266 46.8427C43.8507 44.1584 46.0303 41.3485 47.5776 38.9083C48.3229 37.7329 48.8577 36.7427 49.17 36.1425C49.3095 35.8745 49.4242 35.645 49.4103 35.6727C49.4102 35.6728 49.4077 35.6779 49.4044 35.6843C49.401 35.6911 49.3955 35.7021 49.3886 35.7158C49.3754 35.7419 49.3523 35.7876 49.3232 35.8447C49.27 35.9491 49.1617 36.1605 49.0205 36.4259L-16.302 1.65556ZM-8.25534 -8.53745C-8.16597 -8.61654 -7.36073 -9.33657 -6.27669 -10.168C-5.10908 -11.0636 -3.34787 -12.3048 -1.04934 -13.5175C4.09354 -16.2309 9.70268 -17.6371 15.2921 -17.767C20.227 -17.8817 24.0957 -16.9742 26.2018 -16.3733C28.3774 -15.7525 30.0207 -15.0609 30.844 -14.697L0.934103 52.989C1.58888 53.2783 8.15604 56.4188 17.0114 56.213C30.7572 55.8935 39.2629 48.2265 40.7848 46.8798L-8.25534 -8.53745ZM39.9096 -8.99677L35.135 -13.072L-12.906 43.2135L-8.13148 47.2887L39.9096 -8.99677ZM-15.2393 -10.9L-18.1234 -7.97329L34.5841 43.9682L37.4683 41.0415L-15.2393 -10.9ZM44.8698 23.1505L45.4757 18.8423L-27.8031 8.53623L-28.409 12.8444L44.8698 23.1505ZM35.4782 39.3643L43.2791 31.2697L-10.0048 -20.0804L-17.8057 -11.9857L35.4782 39.3643ZM43.2458 31.3042C44.5311 29.9739 50.6251 23.7592 52.9591 13.4044C54.3574 7.20117 54.4764 -0.959021 50.8691 -9.3725C49.151 -13.3795 46.8615 -16.772 44.3643 -19.5483C43.1324 -20.9178 41.8765 -22.1087 40.6492 -23.1396C40.0355 -23.655 39.4278 -24.1314 38.8319 -24.5715C38.5338 -24.7917 38.2383 -25.0029 37.9461 -25.2057C37.8 -25.3071 37.6546 -25.4065 37.5101 -25.5037C37.4378 -25.5524 37.3658 -25.6005 37.2939 -25.6481C37.258 -25.6719 37.2042 -25.7074 37.1863 -25.7192C37.1327 -25.7544 37.079 -25.7895 16.8512 5.19171C-3.37654 36.173 -3.43022 36.1378 -3.48384 36.1026C-3.50176 36.0908 -3.55558 36.0553 -3.59146 36.0316C-3.6633 35.9839 -3.73536 35.9358 -3.80761 35.8872C-3.95211 35.7899 -4.09744 35.6906 -4.24352 35.5893C-4.53564 35.3866 -4.83096 35.1754 -5.12883 34.9554C-5.72437 34.5156 -6.3315 34.0396 -6.94446 33.5248C-8.17036 32.4951 -9.42432 31.306 -10.6539 29.9391C-13.1464 27.1679 -15.4301 23.7835 -17.1431 19.7883C-20.7403 11.3983 -20.6146 3.27648 -19.2296 -2.86765C-17.9456 -8.56395 -15.5953 -12.6798 -14.0967 -14.9559C-12.5136 -17.3602 -10.9618 -19.0899 -9.97149 -20.1149L43.2458 31.3042ZM53.7946 7.2383C54.182 0.244505 52.5847 -15.3579 37.6482 -25.5561C25.5134 -33.8414 13.3614 -31.9991 10.4101 -31.4969C6.10304 -30.764 2.90823 -29.4305 1.61523 -28.8648C0.777806 -28.4985 0.0685762 -28.1522 -0.484867 -27.8686C-0.768398 -27.7233 -1.02875 -27.5854 -1.26378 -27.458C-1.38178 -27.394 -1.49477 -27.3319 -1.6025 -27.2721C-1.65642 -27.2421 -1.70916 -27.2126 -1.7607 -27.1837C-1.78647 -27.1692 -1.81196 -27.1548 -1.83716 -27.1406C-1.84976 -27.1335 -1.8623 -27.1264 -1.87476 -27.1193C-1.88098 -27.1158 -1.89029 -27.1105 -1.8934 -27.1087C-1.90267 -27.1035 -1.91193 -27.0982 16.3657 5.07209C34.6433 37.2424 34.6341 37.2477 34.6248 37.2529C34.6217 37.2547 34.6124 37.2599 34.6062 37.2635C34.5938 37.2705 34.5813 37.2776 34.5687 37.2847C34.5437 37.2988 34.5183 37.3131 34.4928 37.3274C34.4418 37.3561 34.3898 37.3852 34.3368 37.4146C34.231 37.4734 34.1209 37.5339 34.0066 37.5959C33.779 37.7193 33.5295 37.8514 33.2598 37.9896C32.7341 38.2589 32.0644 38.5859 31.2742 38.9315C30.0758 39.4558 27.0066 40.7427 22.8237 41.4545C20.6489 41.8246 17.1337 42.2242 12.8298 41.7707C8.45882 41.31 2.19714 39.8424 -4.07837 35.5577C-10.7317 31.015 -15.3005 24.7253 -17.7942 18.0959C-20.0979 11.9716 -20.2814 6.56191 -20.0921 3.14513L53.7946 7.2383ZM-4.64098 -25.3864L-14.4777 -18.6022L27.5356 42.3148L37.3724 35.5306L-4.64098 -25.3864ZM42.946 5.3144L42.9428 5.29641L-29.8913 18.3802L-29.8881 18.3982L42.946 5.3144ZM19.5127 -22.8076L14.7979 -24.5749L-11.176 44.7169L-6.46125 46.4842L19.5127 -22.8076ZM38.811 10.071V10.0674H-35.189V10.071H38.811ZM9.85193 -26.0483L9.83981 -26.051L-6.24212 46.1804L-6.23 46.1831L9.85193 -26.0483ZM14.6296 44.7688C16.1452 44.2084 17.6084 43.5552 19.0124 42.8186L-15.3663 -22.7108C-13.978 -23.4391 -12.531 -24.0851 -11.0319 -24.6394L14.6296 44.7688ZM19.8191 42.3826L19.845 42.3682L-16.1471 -22.2892L-16.1729 -22.2748L19.8191 42.3826ZM15.4421 44.4521L15.4672 44.4422L-11.7192 -24.383L-11.7443 -24.3731L15.4421 44.4521ZM1.87398 10.0296C17.5893 43.5263 17.5893 43.5263 17.5893 43.5263C17.5894 43.5263 17.5894 43.5263 17.5895 43.5262C17.5896 43.5262 17.5898 43.5261 17.59 43.526C17.5905 43.5257 17.5912 43.5254 17.5923 43.5249C17.5943 43.524 17.5973 43.5226 17.6013 43.5207C17.6093 43.5169 17.6213 43.5113 17.6372 43.5038C17.6689 43.489 17.7161 43.4668 17.7777 43.4379C17.9008 43.3802 18.0817 43.2953 18.3121 43.1872C18.7729 42.9711 19.432 42.6619 20.2248 42.2901C21.8105 41.5464 23.9297 40.5526 26.0655 39.5516L-5.3392 -27.4539C-7.48274 -26.4493 -9.60811 -25.4526 -11.1971 -24.7074C-11.9918 -24.3347 -12.6526 -24.0247 -13.1148 -23.8079C-13.3459 -23.6995 -13.5274 -23.6144 -13.6512 -23.5563C-13.7131 -23.5273 -13.7606 -23.505 -13.7926 -23.49C-13.8086 -23.4824 -13.8207 -23.4767 -13.8289 -23.4729C-13.833 -23.471 -13.8361 -23.4695 -13.8382 -23.4686C-13.8392 -23.4681 -13.84 -23.4677 -13.8405 -23.4675C-13.8408 -23.4674 -13.841 -23.4673 -13.8411 -23.4672C-13.8412 -23.4672 -13.8412 -23.4671 -13.8413 -23.4671C-13.8413 -23.4671 -13.8413 -23.4671 1.87398 10.0296ZM26.0716 39.5488C28.2019 38.5498 30.3858 37.5262 32.0694 36.7345L0.579617 -30.2311C-1.05715 -29.4614 -3.19061 -28.4614 -5.34527 -27.4511L26.0716 39.5488ZM32.0247 36.7555C32.9503 36.3217 33.8769 35.8905 34.8043 35.4619L3.75833 -31.7106C2.71254 -31.2273 1.66786 -30.7411 0.624302 -30.2521L32.0247 36.7555ZM34.0249 35.8113C35.0426 35.3691 36.2724 34.7814 37.6259 34.0106C38.3011 33.6261 38.8218 33.301 39.0736 33.1421C39.7169 32.736 38.561 33.4814 37.5424 34.0574C35.9625 34.9509 33.4633 36.2137 30.2065 37.2149C27.0898 38.173 24.4541 38.5297 22.8029 38.6849C21.3204 38.8242 20.155 38.839 19.8923 38.8429C19.5628 38.8477 19.2554 38.8468 19.3637 38.8468V-35.1532C19.3635 -35.1532 19.3599 -35.1532 19.3558 -35.1532C19.3514 -35.1532 19.3441 -35.1532 19.3352 -35.1532C19.3186 -35.1532 19.287 -35.1531 19.2475 -35.153C19.18 -35.1528 19.0154 -35.1522 18.8061 -35.1491C18.5358 -35.1452 17.3646 -35.1301 15.8773 -34.9903C14.2212 -34.8347 11.5818 -34.4773 8.46186 -33.5182C5.20173 -32.516 2.6997 -31.2518 1.11662 -30.3566C0.094811 -29.7788 -1.06456 -29.0311 -0.425688 -29.4344C-0.178415 -29.5904 0.336864 -29.9122 1.00498 -30.2927C2.34429 -31.0554 3.55313 -31.6322 4.53779 -32.06L34.0249 35.8113ZM56.3637 1.84683V1.84593H-17.6363V1.84683H56.3637Z" fill="#ECE7E4" mask="url(#path-1-inside-1_818_132)"/>
</svg>
