<svg width="955" height="264" viewBox="0 0 955 264" fill="none" xmlns="http://www.w3.org/2000/svg">
<path fill-rule="evenodd" clip-rule="evenodd" d="M50.2714 0H74.7278V264H50.2714V0ZM0 37.9522H24.4565V264H0V37.9522ZM125 65.896H100.544V264H125V65.896Z" fill="#3E4042" fill-opacity="0.12"/>
<path fill-rule="evenodd" clip-rule="evenodd" d="M216.271 0H240.728V264H216.271V0ZM166 37.9522H190.456V264H166V37.9522ZM291 65.896H266.544V264H291V65.896Z" fill="#3E4042" fill-opacity="0.12"/>
<path fill-rule="evenodd" clip-rule="evenodd" d="M382.271 0H406.728V264H382.271V0ZM332 37.9522H356.456V264H332V37.9522ZM457 65.896H432.544V264H457V65.896Z" fill="#3E4042" fill-opacity="0.12"/>
<path fill-rule="evenodd" clip-rule="evenodd" d="M548.271 0H572.728V264H548.271V0ZM498 37.9522H522.456V264H498V37.9522ZM623 65.896H598.544V264H623V65.896Z" fill="#3E4042" fill-opacity="0.12"/>
<path fill-rule="evenodd" clip-rule="evenodd" d="M714.271 0H738.728V264H714.271V0ZM664 37.9522H688.456V264H664V37.9522ZM789 65.896H764.544V264H789V65.896Z" fill="#3E4042" fill-opacity="0.12"/>
<path fill-rule="evenodd" clip-rule="evenodd" d="M880.271 0H904.728V264H880.271V0ZM830 37.9522H854.456V264H830V37.9522ZM955 65.896H930.544V264H955V65.896Z" fill="#3E4042" fill-opacity="0.12"/>
</svg>
